<svg width="30" height="30" viewBox="0 0 30 30" fill="none" xmlns="http://www.w3.org/2000/svg">
<g clip-path="url(#clip0_15_95)">
<path d="M29.9841 15.2807C29.9841 14.0516 29.8821 13.1547 29.6612 12.2245H15.2988V17.772H23.7292C23.5593 19.1506 22.6414 21.2268 20.6018 22.6219L20.5732 22.8077L25.1143 26.2454L25.4289 26.2761C28.3184 23.6684 29.9841 19.8316 29.9841 15.2807Z" fill="#4285F4"/>
<path d="M15.2988 29.897C19.429 29.897 22.8963 28.5682 25.429 26.2761L20.6018 22.622C19.3101 23.5023 17.5764 24.1168 15.2988 24.1168C11.2536 24.1168 7.82022 21.5092 6.59632 17.905L6.41692 17.9199L1.69499 21.4909L1.63324 21.6586C4.14876 26.5418 9.31584 29.897 15.2988 29.897Z" fill="#34A853"/>
<path d="M6.59628 17.905C6.27334 16.9748 6.08645 15.9782 6.08645 14.9485C6.08645 13.9186 6.27334 12.9221 6.57929 11.992L6.57073 11.7939L1.78962 8.1655L1.63319 8.23821C0.596426 10.2646 0.00152588 12.5401 0.00152588 14.9485C0.00152588 17.3568 0.596426 19.6322 1.63319 21.6586L6.59628 17.905Z" fill="#FBBC05"/>
<path d="M15.2988 5.78004C18.1713 5.78004 20.1089 6.99252 21.2137 8.00576L25.5309 3.8866C22.8795 1.47824 19.429 0 15.2988 0C9.31585 0 4.14876 3.35507 1.63324 8.2382L6.57933 11.992C7.82022 8.38774 11.2536 5.78004 15.2988 5.78004Z" fill="#EB4335"/>
</g>
<defs>
<clipPath id="clip0_15_95">
<rect width="30" height="30" fill="white"/>
</clipPath>
</defs>
</svg>
